<?xml version="1.0" encoding="utf-8"?>
<!-- Generator: Adobe Illustrator 16.0.0, SVG Export Plug-In . SVG Version: 6.00 Build 0)  -->
<!DOCTYPE svg PUBLIC "-//W3C//DTD SVG 1.1//EN" "http://www.w3.org/Graphics/SVG/1.1/DTD/svg11.dtd">
<svg version="1.1" id="Layer_1" xmlns="http://www.w3.org/2000/svg" xmlns:xlink="http://www.w3.org/1999/xlink" x="0px" y="0px"
	 width="173.301px" height="157.211px" viewBox="0 0 173.301 157.211" enable-background="new 0 0 173.301 157.211"
	 xml:space="preserve">
<g>
	<g>
		<path d="M87.641,49.265c-2.058,0-4.116-0.783-5.682-2.349L68.936,33.892c-0.662-0.662-0.662-1.735,0-2.397
			c0.662-0.661,1.735-0.661,2.397,0l13.023,13.023c1.812,1.811,4.758,1.81,6.57,0c1.811-1.811,1.811-4.758-0.002-6.569L72.517,19.54
			c-0.662-0.662-0.662-1.735,0-2.397c0.661-0.661,1.735-0.661,2.397,0l18.408,18.409c3.134,3.133,3.136,8.23,0.003,11.363
			C91.756,48.481,89.7,49.264,87.641,49.265z"/>
	</g>
	<g>
		<rect x="90.6" y="15.207" transform="matrix(-0.6488 -0.7609 0.7609 -0.6488 134.0745 109.4597)" width="3.389" height="17.173"/>
	</g>
	<g>
		<path d="M58.62,60.896c-1.702,0-3.393-0.75-4.529-2.188c-0.952-1.206-1.377-2.71-1.197-4.237c0.18-1.526,0.943-2.891,2.149-3.842
			l17.13-13.59c0.733-0.583,1.799-0.46,2.381,0.274c0.582,0.733,0.459,1.8-0.274,2.381L57.146,53.287
			c-0.499,0.394-0.813,0.954-0.886,1.581c-0.074,0.626,0.101,1.244,0.491,1.739c0.807,1.022,2.296,1.198,3.318,0.392l10.602-8.107
			c0.746-0.568,1.808-0.425,2.376,0.317c0.568,0.744,0.426,1.808-0.317,2.376l-10.581,8.091
			C61.108,60.497,59.861,60.896,58.62,60.896z"/>
	</g>
	<g>
		<path d="M63.938,66.859c-0.228,0-0.456-0.013-0.686-0.041c-1.526-0.18-2.891-0.943-3.842-2.149
			c-1.965-2.487-1.539-6.111,0.95-8.079l10.604-8.107c0.744-0.568,1.808-0.426,2.376,0.317c0.568,0.744,0.426,1.807-0.317,2.376
			l-10.582,8.09c-1.001,0.792-1.177,2.28-0.37,3.302c0.392,0.496,0.952,0.809,1.579,0.883c0.625,0.072,1.244-0.101,1.739-0.491
			l9.796-7.684c0.734-0.579,1.802-0.45,2.379,0.288c0.578,0.736,0.449,1.802-0.288,2.379l-9.792,7.681
			C66.464,66.431,65.225,66.859,63.938,66.859z"/>
	</g>
	<g>
		<path d="M68.224,74.1c-0.225,0-0.451-0.013-0.678-0.04c-1.527-0.179-2.893-0.942-3.845-2.15c-0.953-1.204-1.378-2.709-1.198-4.236
			c0.18-1.525,0.943-2.89,2.149-3.843c0.733-0.58,1.8-0.456,2.381,0.279c0.58,0.734,0.455,1.8-0.279,2.381
			c-0.496,0.392-0.81,0.953-0.884,1.58c-0.074,0.626,0.101,1.243,0.492,1.738c0.392,0.497,0.953,0.811,1.58,0.884
			c0.623,0.07,1.241-0.102,1.735-0.492l7.588-6.405c0.717-0.604,1.786-0.512,2.389,0.202c0.604,0.715,0.513,1.785-0.202,2.389
			l-7.63,6.439C70.76,73.667,69.513,74.1,68.224,74.1z"/>
	</g>
	<g>
		<path d="M73.351,80.48c-0.228,0-0.457-0.013-0.686-0.041c-1.525-0.18-2.89-0.943-3.842-2.149c-0.952-1.206-1.376-2.71-1.197-4.236
			c0.18-1.526,0.943-2.891,2.149-3.842l2.1,2.662c-0.495,0.39-0.809,0.95-0.882,1.577c-0.074,0.626,0.101,1.244,0.491,1.739
			c0.391,0.496,0.952,0.81,1.579,0.884c0.623,0.075,1.244-0.101,1.738-0.491l7.042-5.558l2.101,2.661l-7.041,5.558
			C75.877,80.051,74.637,80.48,73.351,80.48z"/>
	</g>
	<path d="M105.502,55.767l-3.418-3.417c-0.967-0.966-2.25-1.498-3.615-1.498s-2.649,0.532-3.617,1.499
		c-1.991,1.994-1.991,5.238,0.001,7.231L98.27,63c0.967,0.966,2.251,1.498,3.616,1.498c1.364,0,2.649-0.532,3.616-1.498
		S107,60.75,107,59.383C107,58.018,106.469,56.733,105.502,55.767z M103.106,60.603c-0.652,0.651-1.787,0.651-2.439,0l-3.416-3.417
		c-0.672-0.672-0.672-1.766,0-2.438c0.326-0.326,0.758-0.505,1.22-0.505c0.461,0,0.894,0.179,1.22,0.505l3.417,3.417
		c0.326,0.326,0.505,0.759,0.505,1.219S103.432,60.277,103.106,60.603z"/>
	<path d="M100.735,60.534l-3.418-3.417c-0.966-0.965-2.25-1.498-3.615-1.498s-2.65,0.532-3.617,1.498
		c-1.992,1.995-1.992,5.239,0.002,7.231l3.416,3.418c0.968,0.966,2.252,1.498,3.617,1.498c1.364,0,2.648-0.532,3.615-1.498
		C102.728,65.773,102.728,62.529,100.735,60.534z M98.338,65.37c-0.652,0.651-1.787,0.651-2.439,0l-3.417-3.418
		c-0.672-0.672-0.672-1.766,0-2.438c0.326-0.326,0.759-0.505,1.22-0.505s0.894,0.179,1.219,0.505l3.418,3.416
		C99.01,63.604,99.01,64.698,98.338,65.37z"/>
	<path d="M95.965,65.301l-3.416-3.417c-0.967-0.965-2.25-1.498-3.616-1.498c-1.365,0-2.65,0.532-3.617,1.499
		c-1.991,1.994-1.991,5.238,0.001,7.231l3.418,3.417c0.967,0.966,2.251,1.498,3.616,1.498c1.364,0,2.649-0.531,3.614-1.497
		c0.968-0.966,1.5-2.25,1.5-3.616S96.933,66.268,95.965,65.301z M93.57,70.137c-0.653,0.651-1.788,0.65-2.438,0l-3.416-3.417
		c-0.672-0.672-0.672-1.766-0.002-2.438c0.326-0.326,0.76-0.505,1.221-0.505s0.895,0.179,1.22,0.505l3.417,3.417
		c0.326,0.326,0.506,0.759,0.506,1.219S93.896,69.811,93.57,70.137z"/>
	<path d="M91.2,70.068l-3.419-3.416c-0.965-0.965-2.25-1.498-3.615-1.498c-1.365,0-2.65,0.532-3.617,1.499
		c-1.991,1.994-1.991,5.238,0,7.231l3.417,3.417c0.966,0.966,2.25,1.498,3.617,1.498c1.364,0,2.648-0.532,3.615-1.498
		c0.967-0.966,1.499-2.25,1.499-3.616C92.697,72.319,92.167,71.034,91.2,70.068z M88.801,74.904c-0.65,0.651-1.787,0.652-2.438,0
		l-3.417-3.417c-0.671-0.672-0.671-1.766,0-2.438c0.326-0.326,0.759-0.505,1.22-0.505c0.46,0,0.893,0.179,1.219,0.505l3.418,3.416
		c0.326,0.326,0.505,0.759,0.505,1.22C89.307,74.146,89.127,74.578,88.801,74.904z"/>
	<g>
		<path d="M96.749,55.945c0-0.005,0.002-0.011,0.002-0.016l-0.002,0.001V55.945z"/>
		<path d="M97.25,57.186c-0.33-0.331-0.496-0.763-0.502-1.197v5.354l1.588,1.588c0.674,0.673,0.674,1.767,0.002,2.439
			c-0.418,0.417-1.03,0.563-1.59,0.447v35.023H75.545V77.346h-3.39v26.884h27.984V60.076L97.25,57.186z"/>
		<path d="M100.139,16.523V0H72.155v16.523h-22.29v27.984h18.114v-3.39H53.255V19.913h22.29V3.39h21.204v16.523H117.5v21.205h-6.612
			l-12.54,13.137c0.04-0.003,0.08-0.012,0.121-0.012c0.461,0,0.894,0.179,1.22,0.505l1.472,1.471l11.178-11.712h8.553V16.523
			H100.139z"/>
	</g>
</g>
<path d="M0.788,116.391h19.027c11.979,0,20.617,6.308,20.617,18.922c0,15.688-11.925,19.609-22.101,19.609H0.788V116.391z
	 M5.452,150.789h13.621c3.816,0,16.589-0.479,16.589-15.637c0-11.288-8.003-14.627-15.847-14.627H5.452V150.789z"/>
<path d="M47.905,116.391h34.344v4.135h-29.68v12.295h24.804v4.136H52.569v13.833h30.316v4.134h-34.98V116.391z"/>
<path d="M89.508,143.898c2.228,2.969,5.938,7.845,17.49,7.845c5.937,0,14.045-1.696,14.045-7.687
	c0-11.713-33.602-1.431-33.602-17.065c0-8.216,7.578-11.554,18.072-11.554c10.177,0,16.431,4.188,19.08,7.896l-3.393,2.756
	c-1.59-1.802-5.3-6.73-15.793-6.73c-7.738,0-13.197,2.015-13.197,6.891c0,11.66,33.603,0.529,33.603,17.809
	c0,6.465-6.254,11.818-19.345,11.818c-12.615,0-17.279-5.247-20.565-8.904L89.508,143.898z"/>
<path d="M173.301,144.693c-4.135,8.004-11.288,11.184-20.67,11.184c-14.945,0-21.995-8.957-21.995-20.141
	c0-13.25,8.956-20.299,21.942-20.299c8.269,0,16.694,3.18,20.141,11.023l-4.028,1.854c-2.703-6.307-8.69-8.957-16.06-8.957
	c-11.023,0-17.225,5.99-17.225,16.961c0,8.852,5.988,15.424,17.648,15.424c7.632,0,12.932-3.182,16.111-9.063L173.301,144.693z"/>
</svg>
